<mxfile host="app.diagrams.net" modified="2023-10-21T16:04:16.759Z" agent="Mozilla/5.0 (Windows NT 10.0; Win64; x64) AppleWebKit/537.36 (KHTML, like Gecko) Chrome/116.0.0.0 Safari/537.36 OPR/102.0.0.0 (Edition std-1)" version="22.0.6" etag="ZsiCPRrPP6fEnmpPE3jW" type="github">
  <diagram name="PÃ¡gina-1" id="neTgW48e5-D-_6GI0Nl7">
    <mxGraphModel>
      <root>
        <mxCell id="0" />
        <mxCell id="1" parent="0" />
      </root>
    </mxGraphModel>
  </diagram>
</mxfile>
